<?xml version="1.0" standalone="no"?>
<!DOCTYPE svg PUBLIC "-//W3C//DTD SVG 20010904//EN"
 "http://www.w3.org/TR/2001/REC-SVG-20010904/DTD/svg10.dtd">
<svg version="1.0" xmlns="http://www.w3.org/2000/svg"
 width="930.000000pt" height="728.000000pt" viewBox="0 0 930.000000 728.000000"
 preserveAspectRatio="xMidYMid meet">

<g transform="translate(0.000000,728.000000) scale(0.100000,-0.100000)"
fill="#000000" stroke="none">
<path d="M2497 4053 c-4 -3 -7 -219 -7 -479 0 -421 2 -473 16 -478 24 -9 73
-7 95 4 18 10 19 24 19 254 0 231 1 245 21 270 38 49 124 50 152 2 8 -14 13
-97 15 -271 3 -177 7 -252 15 -257 22 -14 85 -8 102 9 15 15 17 44 13 277 -3
236 -5 265 -23 301 -28 55 -76 85 -137 85 -56 0 -80 -10 -125 -53 l-33 -31 0
175 c0 123 -4 179 -12 187 -13 13 -100 17 -111 5z"/>
<path d="M6612 4048 c-9 -9 -12 -118 -12 -469 0 -507 -2 -489 65 -489 67 0 65
-4 65 171 0 94 4 159 9 159 6 0 45 -62 87 -137 113 -201 105 -193 169 -193 30
0 57 5 60 10 4 6 -36 83 -87 172 -51 89 -94 165 -96 169 -2 4 39 75 90 158
102 168 102 171 16 171 -56 0 -60 -5 -162 -182 -38 -65 -72 -118 -77 -118 -5
0 -10 131 -11 293 l-3 292 -50 3 c-30 2 -55 -2 -63 -10z"/>
<path d="M4018 3989 c-23 -13 -25 -101 -4 -118 8 -7 36 -11 63 -9 l48 3 3 59
c2 41 -1 62 -10 67 -18 12 -79 11 -100 -2z"/>
<path d="M3325 3756 c-85 -27 -105 -59 -66 -107 l19 -23 63 22 c74 26 107 27
154 8 26 -11 36 -23 44 -53 21 -76 19 -80 -56 -88 -92 -10 -171 -41 -214 -84
-67 -67 -76 -202 -17 -283 54 -77 206 -82 272 -9 25 28 29 27 43 -9 14 -38 31
-44 83 -30 39 11 42 13 35 38 -3 15 -10 135 -13 267 -6 194 -10 246 -24 270
-22 41 -50 64 -95 81 -47 17 -175 17 -228 0z m225 -414 c0 -92 -11 -113 -74
-137 -37 -14 -50 -15 -80 -5 -44 14 -56 35 -56 94 0 78 60 124 163 125 l47 1
0 -78z"/>
<path d="M4016 3754 c-14 -13 -16 -57 -16 -324 0 -345 -1 -340 69 -340 20 0
42 5 49 12 9 9 12 96 12 330 0 303 -1 318 -19 328 -29 15 -77 12 -95 -6z"/>
<path d="M4565 3760 c-41 -13 -84 -55 -106 -104 -40 -88 -15 -230 47 -271 l24
-16 -27 -35 c-35 -47 -38 -119 -6 -162 l22 -29 -26 -14 c-41 -22 -73 -88 -73
-152 0 -49 4 -61 31 -92 38 -43 106 -65 199 -65 166 0 251 67 251 197 0 88
-52 142 -159 163 -108 22 -132 31 -148 55 -14 21 -14 30 -4 55 13 31 35 41
126 55 52 8 111 56 135 109 23 50 24 124 4 173 -8 19 -15 37 -15 39 0 2 20 4
44 4 37 0 44 3 48 23 2 12 2 32 0 45 -3 20 -8 22 -75 22 -40 0 -115 2 -167 5
-52 2 -108 0 -125 -5z m144 -95 c71 -36 68 -185 -4 -219 -84 -40 -155 9 -155
108 0 102 75 155 159 111z m-34 -574 c77 -14 109 -37 113 -83 6 -71 -69 -109
-175 -88 -67 14 -88 41 -80 101 6 46 42 92 66 85 9 -3 43 -10 76 -15z"/>
<path d="M5284 3751 c-51 -23 -107 -88 -124 -143 -36 -121 -29 -301 15 -394
25 -52 70 -92 130 -114 43 -17 163 -14 215 4 80 30 98 61 60 109 l-21 26 -52
-24 c-127 -60 -215 -15 -233 119 l-7 46 160 0 161 0 17 27 c33 50 -1 227 -57
298 -49 62 -179 85 -264 46z m161 -105 c26 -27 45 -83 45 -138 l0 -38 -110 0
-110 0 0 33 c0 93 51 167 115 167 24 0 43 -7 60 -24z"/>
<path d="M5994 3751 c-51 -23 -107 -88 -124 -143 -36 -121 -29 -301 15 -394
25 -52 70 -92 130 -114 43 -17 163 -14 215 4 80 30 98 61 60 109 l-21 26 -52
-24 c-127 -60 -215 -15 -233 119 l-7 46 160 0 161 0 17 27 c33 50 -1 227 -57
298 -49 62 -179 85 -264 46z m161 -105 c26 -27 45 -83 45 -138 l0 -38 -110 0
-110 0 0 33 c0 93 51 167 115 167 24 0 43 -7 60 -24z"/>
</g>
</svg>
